<svg width="36" height="36" viewBox="0 0 36 36" fill="none" xmlns="http://www.w3.org/2000/svg">
<path d="M16.1348 4.14787C16.3063 3.8033 16.5716 3.5132 16.9007 3.31035C17.2297 3.1075 17.6094 3 17.9969 3C18.3843 3 18.764 3.1075 19.093 3.31035C19.4221 3.5132 19.6873 3.8033 19.8589 4.14787L23.3683 11.2013L31.2155 12.3318C31.5992 12.3867 31.9597 12.547 32.2562 12.7945C32.5528 13.0421 32.7736 13.367 32.8936 13.7325C33.0136 14.0981 33.0282 14.4896 32.9355 14.8629C32.8428 15.2362 32.6467 15.5763 32.3692 15.8448L26.6886 21.3374L28.0291 29.0888C28.0943 29.4675 28.0513 29.8567 27.9052 30.2125C27.759 30.5683 27.5154 30.8764 27.202 31.1021C26.8885 31.3278 26.5177 31.462 26.1313 31.4896C25.745 31.5172 25.3586 31.4371 25.0158 31.2584L17.9969 27.6012L10.9779 31.2629C10.6347 31.4421 10.2478 31.5224 9.86094 31.4946C9.47409 31.4669 9.10281 31.3322 8.78916 31.1059C8.47551 30.8796 8.23202 30.5707 8.08628 30.2142C7.94055 29.8577 7.89838 29.4678 7.96457 29.0888L9.30282 21.3374L3.62679 15.8471C3.3494 15.5788 3.15321 15.2388 3.06043 14.8657C2.96764 14.4926 2.98195 14.1011 3.10173 13.7357C3.22151 13.3702 3.442 13.0452 3.73825 12.7976C4.03451 12.5499 4.39472 12.3893 4.77815 12.3341L12.6231 11.2036L16.1348 4.15016V4.14787Z" fill="#68663F"/>
</svg>
